<svg xmlns="http://www.w3.org/2000/svg" width="83.389" height="83.389" viewBox="0 0 83.389 83.389">
  <g id="Group_882" data-name="Group 882" transform="translate(-137.866 -174.945)">
    <circle id="Ellipse_134" data-name="Ellipse 134" cx="41.695" cy="41.695" r="41.695" transform="translate(137.866 174.945)" fill="#2aca00"/>
    <path id="Path_2972" data-name="Path 2972" d="M188.8,187.513l21.439,21.439A41.667,41.667,0,0,0,241.148,168.7V167.52L224.313,152Z" transform="translate(-19.894 47.936)" fill="#26b700"/>
    <path id="Path_2973" data-name="Path 2973" d="M113.939,217.817a4.925,4.925,0,0,1,0,6.839l-3.814,3.814a4.924,4.924,0,0,1-6.839,0l-16.7-16.836a4.924,4.924,0,0,1,0-6.839l3.814-3.814a4.924,4.924,0,0,1,6.839,0Z" transform="translate(66.674 8.162)" fill="#fff"/>
    <path id="Path_2974" data-name="Path 2974" d="M194.717,126.581a4.924,4.924,0,0,1,6.839,0l3.814,3.814a4.925,4.925,0,0,1,0,6.839l-28.936,28.8a4.925,4.925,0,0,1-6.839,0l-3.814-3.814a4.924,4.924,0,0,1,0-6.839Z" transform="translate(0.495 70.329)" fill="#fff"/>
  </g>
</svg>
