<svg xmlns="http://www.w3.org/2000/svg" width="16.099" height="16.464" viewBox="0 0 16.099 16.464">
  <g id="calendar" transform="translate(-5.411)">
    <g id="Group_623" data-name="Group 623" transform="translate(5.411)">
      <path id="Path_2778" data-name="Path 2778" d="M119.086,258.615a.373.373,0,0,0-.374-.373h-1.3a.373.373,0,0,0-.373.373v1.3a.374.374,0,0,0,.373.374h1.3a.374.374,0,0,0,.374-.374v-1.3Z" transform="translate(-113.27 -249.532)" fill="#adadad"/>
      <path id="Path_2779" data-name="Path 2779" d="M215.721,258.615a.373.373,0,0,0-.373-.373h-1.3a.373.373,0,0,0-.374.373v1.3a.374.374,0,0,0,.374.374h1.3a.373.373,0,0,0,.373-.374Z" transform="translate(-206.646 -249.532)" fill="#adadad"/>
      <path id="Path_2780" data-name="Path 2780" d="M312.349,258.615a.373.373,0,0,0-.374-.373h-1.3a.373.373,0,0,0-.374.373v1.3a.374.374,0,0,0,.374.374h1.3a.374.374,0,0,0,.374-.374Z" transform="translate(-300.015 -249.532)" fill="#adadad"/>
      <path id="Path_2781" data-name="Path 2781" d="M119.086,355.249a.373.373,0,0,0-.374-.374h-1.3a.373.373,0,0,0-.373.374v1.3a.373.373,0,0,0,.373.373h1.3a.374.374,0,0,0,.374-.373v-1.3Z" transform="translate(-113.27 -342.906)" fill="#adadad"/>
      <path id="Path_2782" data-name="Path 2782" d="M215.721,355.249a.373.373,0,0,0-.373-.374h-1.3a.373.373,0,0,0-.374.374v1.3a.373.373,0,0,0,.374.373h1.3a.373.373,0,0,0,.373-.373Z" transform="translate(-206.646 -342.906)" fill="#adadad"/>
      <path id="Path_2783" data-name="Path 2783" d="M312.349,355.249a.373.373,0,0,0-.373-.374h-1.3a.373.373,0,0,0-.374.374v1.3a.373.373,0,0,0,.374.373h1.3a.373.373,0,0,0,.373-.373v-1.3Z" transform="translate(-300.015 -342.906)" fill="#adadad"/>
      <path id="Path_2784" data-name="Path 2784" d="M20.077,54.149v1.992a1.627,1.627,0,0,1-1.63,1.626H17.418a1.635,1.635,0,0,1-1.64-1.626v-2H11.143v2A1.635,1.635,0,0,1,9.5,57.766H8.474a1.627,1.627,0,0,1-1.63-1.626V54.149a1.482,1.482,0,0,0-1.433,1.475V67.3A1.483,1.483,0,0,0,6.887,68.78H20.034A1.485,1.485,0,0,0,21.51,67.3V55.624A1.482,1.482,0,0,0,20.077,54.149ZM19.6,66.568a.638.638,0,0,1-.638.638H7.932a.638.638,0,0,1-.638-.638V60.54a.638.638,0,0,1,.638-.638h11.03a.638.638,0,0,1,.638.638v6.029Z" transform="translate(-5.411 -52.316)" fill="#adadad"/>
      <path id="Path_2785" data-name="Path 2785" d="M80.109,4.383h1.017a.559.559,0,0,0,.559-.559V.559A.559.559,0,0,0,81.126,0H80.109a.559.559,0,0,0-.559.559V3.824A.559.559,0,0,0,80.109,4.383Z" transform="translate(-77.05)" fill="#adadad"/>
      <path id="Path_2786" data-name="Path 2786" d="M345.017,4.383h1.017a.559.559,0,0,0,.559-.559V.559A.559.559,0,0,0,346.034,0h-1.017a.559.559,0,0,0-.559.559V3.824A.559.559,0,0,0,345.017,4.383Z" transform="translate(-333.023)" fill="#adadad"/>
    </g>
  </g>
</svg>
