<svg xmlns="http://www.w3.org/2000/svg" width="16.229" height="16.229" viewBox="0 0 16.229 16.229"><g transform="translate(-41 -589)"><rect width="16.229" height="16.229" rx="4" transform="translate(41 589)" fill="#51bafc"/><g transform="translate(42.355 592.221)"><path d="M12.735,53.05,11.6,51.912a.808.808,0,0,0-1.138,0L4.97,57.41,2.51,54.941a.775.775,0,0,0-.569-.234.775.775,0,0,0-.569.234L.234,56.079a.808.808,0,0,0,0,1.138l3.029,3.029L4.4,61.384a.808.808,0,0,0,1.138,0l1.138-1.138,6.058-6.058a.808.808,0,0,0,0-1.138Z" transform="translate(0 -51.678)" fill="#fff"/></g></g></svg>