<svg xmlns="http://www.w3.org/2000/svg" width="19.844" height="19.844" viewBox="0 0 19.844 19.844"><rect width="19.844" height="19.844" rx="4" fill="#f95661"/><path d="M162.266,332.32a1.269,1.269,0,0,1-.328-.939v-7.974a1.145,1.145,0,0,1,1.267-1.267h5.157a1.5,1.5,0,0,1,.97.268.945.945,0,0,1,.327.775q0,1.073-1.3,1.074h-3.756v2h3.459q1.3,0,1.3,1.058a.944.944,0,0,1-.328.775,1.5,1.5,0,0,1-.968.268h-3.459v2.176h3.756q1.3,0,1.3,1.074a.946.946,0,0,1-.327.775,1.506,1.506,0,0,1-.97.268h-5.157A1.27,1.27,0,0,1,162.266,332.32Z" transform="translate(-155.877 -317.499)" fill="#fff"/></svg>