<svg xmlns="http://www.w3.org/2000/svg" width="62" height="62" viewBox="0 0 62 62"><path d="M52.92,9.08A31,31,0,0,0,9.08,52.92,31,31,0,0,0,52.92,9.08Zm0,0" fill="#fff"/><path d="M114.962,9.08a31,31,0,0,0-43.841,0,1.817,1.817,0,0,0,0,2.569L78,18.527a1.816,1.816,0,0,0,2.569,0,17.639,17.639,0,0,1,24.946,0,1.816,1.816,0,0,0,2.569,0l6.879-6.879a1.816,1.816,0,0,0,0-2.569Zm0,0" transform="translate(-62.042)" fill="#ff8e1d"/><path d="M277.92,9.08A30.8,30.8,0,0,0,256,0V13.361a17.525,17.525,0,0,1,12.473,5.167,1.816,1.816,0,0,0,2.569,0l6.879-6.878a1.816,1.816,0,0,0,0-2.569Zm0,0" transform="translate(-225)" fill="#ffd12b"/><path d="M13.361,93.038a17.525,17.525,0,0,1,5.166-12.473,1.815,1.815,0,0,0,0-2.569l-6.878-6.879a1.816,1.816,0,0,0-2.569,0,31,31,0,0,0,0,43.841,1.816,1.816,0,0,0,2.569,0l6.879-6.879a1.816,1.816,0,0,0,0-2.569A17.526,17.526,0,0,1,13.361,93.038Zm0,0" transform="translate(0 -62.039)" fill="#f95661"/><path d="M364.589,71.118a1.816,1.816,0,0,0-2.569,0L355.142,78a1.816,1.816,0,0,0,0,2.569,17.641,17.641,0,0,1,0,24.946,1.816,1.816,0,0,0,0,2.569l6.879,6.879a1.816,1.816,0,0,0,2.569,0,31,31,0,0,0,0-43.841Zm0,0" transform="translate(-311.668 -62.039)" fill="#8ee847"/><path d="M217.6,358.242h-8.058a1.816,1.816,0,1,1,0-3.633H217.6a1.816,1.816,0,1,1,0,3.633Zm0,0" transform="translate(-182.572 -312.668)" fill="#a0a0a0"/></svg>