<svg xmlns="http://www.w3.org/2000/svg" width="23.988" height="18.848" viewBox="0 0 23.988 18.848"><g transform="translate(0 0)"><path d="M2.3,60.63q.455.321,2.744,1.908T8.554,64.98q.134.094.569.408t.723.509q.288.194.7.435a4.04,4.04,0,0,0,.77.361,2.121,2.121,0,0,0,.669.12h.027a2.123,2.123,0,0,0,.669-.12,4.043,4.043,0,0,0,.77-.361q.408-.241.7-.435t.723-.509q.435-.315.569-.408L21.7,60.629a6.359,6.359,0,0,0,1.633-1.646,3.535,3.535,0,0,0,.656-2.021,2.16,2.16,0,0,0-2.142-2.142H2.142a1.912,1.912,0,0,0-1.586.7A2.7,2.7,0,0,0,0,57.256a3.127,3.127,0,0,0,.736,1.827A6.644,6.644,0,0,0,2.3,60.63Z" transform="translate(0 -54.82)" fill="#54b7fc"/><path d="M22.65,185.6q-4.39,2.972-6.666,4.618-.763.562-1.238.877a7.638,7.638,0,0,1-1.265.642,3.852,3.852,0,0,1-1.472.328h-.027a3.853,3.853,0,0,1-1.472-.328,7.642,7.642,0,0,1-1.265-.642q-.475-.314-1.238-.877Q6.2,188.895,1.352,185.6A7.09,7.09,0,0,1,0,184.437v10.628a2.062,2.062,0,0,0,.629,1.513,2.062,2.062,0,0,0,1.513.629h19.7a2.148,2.148,0,0,0,2.142-2.142V184.437A7.382,7.382,0,0,1,22.65,185.6Z" transform="translate(0 -178.36)" fill="#54b7fc"/></g></svg>