<svg xmlns="http://www.w3.org/2000/svg" width="9.213" height="9.213" viewBox="0 0 9.213 9.213">
  <path id="forbidden-mark" d="M7.748.055a.19.19,0,0,0-.268,0L4.741,2.794a.19.19,0,0,1-.268,0L1.733.055a.19.19,0,0,0-.268,0L.055,1.465a.19.19,0,0,0,0,.268L2.794,4.472a.19.19,0,0,1,0,.268L.055,7.48a.19.19,0,0,0,0,.268L1.465,9.157a.19.19,0,0,0,.268,0L4.472,6.418a.19.19,0,0,1,.268,0L7.479,9.157a.19.19,0,0,0,.268,0L9.157,7.748a.19.19,0,0,0,0-.268L6.418,4.741a.19.19,0,0,1,0-.268L9.157,1.733a.19.19,0,0,0,0-.268Z" fill="#f95a56"/>
</svg>
