<svg xmlns="http://www.w3.org/2000/svg" width="19.844" height="19.844" viewBox="0 0 19.844 19.844"><rect width="19.844" height="19.844" rx="4" fill="#3bd12d"/><path d="M172.253,273.485a1.2,1.2,0,0,1,.33.883v7.208a1.216,1.216,0,0,1-.33.889,1.178,1.178,0,0,1-.883.337,1.192,1.192,0,0,1-.882-.33,1.209,1.209,0,0,1-.33-.9v-2.695h-3.88v2.695a1.213,1.213,0,0,1-.33.889,1.178,1.178,0,0,1-.882.337,1.191,1.191,0,0,1-.883-.33,1.206,1.206,0,0,1-.33-.9v-7.208a1.214,1.214,0,1,1,2.425,0v2.546h3.88v-2.546a1.249,1.249,0,0,1,2.1-.883Z" transform="translate(-158.297 -267.487)" fill="#fff"/></svg>