<svg xmlns="http://www.w3.org/2000/svg" width="72.335" height="82.381" viewBox="0 0 72.335 82.381"><g transform="translate(-138 -159.382)"><path d="M269.09,177.589h0L250,195.619l27.126,22.6V170Z" transform="translate(-66.791 23.54)" fill="#54b7fc"/><path d="M25,170v48.223l27.126-22.6Z" transform="translate(113 23.54)" fill="#54b7fc"/><path d="M52.126,297.5,25,320.1H61.167V306.04Z" transform="translate(113 -78.341)" fill="#0092fc"/><path d="M205,306.04V320.1h36.167l-27.126-22.6Z" transform="translate(-30.833 -78.341)" fill="#0092fc"/><path d="M33.036,132.229,25,139.818h8.035Z" transform="translate(113 53.722)" fill="#0092fc"/><path d="M353.041,139.817l-8.036-7.59v7.59Z" transform="translate(-142.706 53.724)" fill="#54b7fc"/><path d="M154.03,0,141.213,12.1l25.6-.03Z" transform="translate(20.138 159.382)" fill="#54b7fc"/><path d="M345.008,177.589,353.044,170h-8.036Z" transform="translate(-142.709 23.54)" fill="#0092fc"/><path d="M61.167,204.158l-28.133-26.57V170H25l27.126,25.619Z" transform="translate(113 23.54)" fill="#0092fc"/><path d="M64.986,89.69l28.133,26.57,9.042-8.54,19.09-18.029h0V60l-15.346.018-25.6.03-15.314.018V89.69Zm10.049-5.579H111.2V90.14H75.035Zm0-6.028V72.056H111.2v6.028Z" transform="translate(81.048 111.438)" fill="#e0e0e0"/><rect width="36" height="6" transform="translate(157 183.437)" fill="#fff"/><rect width="36" height="7" transform="translate(157 195.437)" fill="#fff"/></g></svg>