<svg id="information" xmlns="http://www.w3.org/2000/svg" width="22" height="22" viewBox="0 0 22 22">
  <path id="Path_2794" data-name="Path 2794" d="M11,0A11,11,0,1,0,22,11,11.013,11.013,0,0,0,11,0Zm0,20a9,9,0,1,1,9-9A9.01,9.01,0,0,1,11,20Z" fill="#0092fc"/>
  <path id="Path_2795" data-name="Path 2795" d="M146.335,70a1.333,1.333,0,1,0,1.333,1.334A1.335,1.335,0,0,0,146.335,70Z" transform="translate(-135.335 -65.333)" fill="#0092fc"/>
  <path id="Path_2796" data-name="Path 2796" d="M151,140a1,1,0,0,0-1,1v6a1,1,0,0,0,2,0v-6A1,1,0,0,0,151,140Z" transform="translate(-140 -130.667)" fill="#0092fc"/>
</svg>
