<svg xmlns="http://www.w3.org/2000/svg" xmlns:xlink="http://www.w3.org/1999/xlink" width="14" height="14" viewBox="0 0 14 14">
  <defs>
    <clipPath id="clip-Artboard_2">
      <rect width="14" height="14"/>
    </clipPath>
  </defs>
  <g id="Artboard_2" data-name="Artboard – 2" clip-path="url(#clip-Artboard_2)">
    <g id="Group_734" data-name="Group 734" transform="translate(-212 -1052)">
      <path id="Path_2823" data-name="Path 2823" d="M10.957,23.2H3.043A3.025,3.025,0,0,1,0,20.157V12.243A3.025,3.025,0,0,1,3.043,9.2h7.913A3.025,3.025,0,0,1,14,12.243v7.913A3.025,3.025,0,0,1,10.957,23.2Z" transform="translate(212 1042.8)" fill="#f95661"/>
      <g id="Group_733" data-name="Group 733" transform="translate(216.261 1055.522)">
        <path id="Path_2825" data-name="Path 2825" d="M15.322,23.691a.6.6,0,0,1-.565.565.6.6,0,0,1-.435-.217L11.061,21v2.652a.654.654,0,0,1-.174.478.594.594,0,0,1-.478.174.5.5,0,0,1-.435-.174.594.594,0,0,1-.174-.478V17.909a.5.5,0,0,1,.174-.435.773.773,0,0,1,.435-.174.594.594,0,0,1,.478.174.558.558,0,0,1,.174.435V20.43l3.174-2.957a.565.565,0,0,1,.957.391.416.416,0,0,1-.217.391l-2.652,2.391L15.1,23.257A.6.6,0,0,1,15.322,23.691Z" transform="translate(-9.8 -17.3)" fill="#fff"/>
      </g>
    </g>
  </g>
</svg>
