<svg xmlns="http://www.w3.org/2000/svg" width="19.844" height="19.844" viewBox="0 0 19.844 19.844"><rect width="19.844" height="19.844" rx="4" fill="#f95661"/><path d="M199.358,332.742a1.3,1.3,0,0,1-.331-.963v-8.032a1.329,1.329,0,0,1,.369-.985,1.349,1.349,0,0,1,1-.369,1.4,1.4,0,0,1,1.023.369,1.314,1.314,0,0,1,.377.985v7.085h3.46q1.309,0,1.309,1.128a1.039,1.039,0,0,1-.323.843,1.513,1.513,0,0,1-.986.27h-4.949A1.281,1.281,0,0,1,199.358,332.742Z" transform="translate(-192.691 -317.753)" fill="#fff"/></svg>