<svg xmlns="http://www.w3.org/2000/svg" width="19.844" height="19.844" viewBox="0 0 19.844 19.844"><rect width="19.844" height="19.844" rx="4" fill="#f95661"/><path d="M243.3,323.673a1.227,1.227,0,0,1,.327.886v7.411a1.1,1.1,0,0,1-.3.818,1.183,1.183,0,0,1-1.573,0,1.09,1.09,0,0,1-.307-.818v-4.005l-1.553,2.861a1.754,1.754,0,0,1-.491.62,1.11,1.11,0,0,1-1.225,0,1.739,1.739,0,0,1-.491-.62l-1.539-2.779v3.924a1.1,1.1,0,0,1-.307.81,1.095,1.095,0,0,1-1.887-.81v-7.411a1.212,1.212,0,0,1,.333-.886,1.142,1.142,0,0,1,.852-.341,1.129,1.129,0,0,1,.667.212,1.643,1.643,0,0,1,.5.607l2.507,4.713,2.493-4.713a1.277,1.277,0,0,1,1.144-.818A1.119,1.119,0,0,1,243.3,323.673Z" transform="translate(-228.812 -318.692)" fill="#fff"/></svg>