<svg xmlns="http://www.w3.org/2000/svg" width="19.844" height="19.844" viewBox="0 0 19.844 19.844"><rect width="19.844" height="19.844" rx="4" fill="#f95661"/><path d="M278.911,323.932a1.128,1.128,0,0,1,.31.824v6.781a1.156,1.156,0,0,1-.3.837,1.038,1.038,0,0,1-.785.316,1.019,1.019,0,0,1-.863-.38l-3.853-4.8v4.031a1.186,1.186,0,0,1-.291.837,1.013,1.013,0,0,1-.786.316,1.038,1.038,0,0,1-.785-.316,1.156,1.156,0,0,1-.3-.837v-6.781a1.139,1.139,0,0,1,.3-.824,1.041,1.041,0,0,1,.785-.317,1.027,1.027,0,0,1,.849.38l3.853,4.791v-4.03a1.145,1.145,0,0,1,.3-.83,1.029,1.029,0,0,1,.779-.311A1.063,1.063,0,0,1,278.911,323.932Z" transform="translate(-265.37 -318.202)" fill="#fff"/></svg>