<svg xmlns="http://www.w3.org/2000/svg" width="19.844" height="19.844" viewBox="0 0 19.844 19.844"><rect width="19.844" height="19.844" rx="4" fill="#3bd12d"/><path d="M208.715,273.882a1.158,1.158,0,0,1,.318.846v6.956a1.184,1.184,0,0,1-.312.858,1.064,1.064,0,0,1-.805.325,1.046,1.046,0,0,1-.885-.39l-3.952-4.928v4.135a1.217,1.217,0,0,1-.3.858,1.041,1.041,0,0,1-.806.325,1.066,1.066,0,0,1-.806-.325,1.184,1.184,0,0,1-.312-.858v-6.956a1.169,1.169,0,0,1,.312-.846,1.068,1.068,0,0,1,.806-.325,1.053,1.053,0,0,1,.871.39l3.953,4.915v-4.135a1.175,1.175,0,0,1,.306-.852,1.056,1.056,0,0,1,.8-.319A1.09,1.09,0,0,1,208.715,273.882Z" transform="translate(-195.022 -267.889)" fill="#fff"/></svg>