<svg xmlns="http://www.w3.org/2000/svg" width="94" height="94" viewBox="0 0 94 94">
  <g id="needsimprovement_face" transform="translate(2557 -505)">
    <circle id="Ellipse_37" data-name="Ellipse 37" cx="47" cy="47" r="47" transform="translate(-2557 505)" fill="#fec631"/>
    <path id="Path_2770" data-name="Path 2770" d="M25.522,40.6c-5.418,0-11.155-2.41-15.866-7.119a2.238,2.238,0,0,1,3.165-3.165,19.343,19.343,0,0,0,11.009,5.73,12.118,12.118,0,0,0,10.445-3.491c7.856-7.858,22.166-7.858,30.022,0a2.238,2.238,0,0,1-3.165,3.165c-6.09-6.09-17.6-6.09-23.692,0A16.6,16.6,0,0,1,25.522,40.6Z" transform="translate(-2545.857 538.34)" fill="#f97143"/>
    <g id="Group_492" data-name="Group 492">
      <circle id="Ellipse_20" data-name="Ellipse 20" cx="13.5" cy="13.5" r="13.5" transform="translate(-2544 525)" fill="#fff"/>
      <circle id="Ellipse_21" data-name="Ellipse 21" cx="13.5" cy="13.5" r="13.5" transform="translate(-2503 525)" fill="#fff"/>
      <ellipse id="Ellipse_22" data-name="Ellipse 22" cx="7" cy="6.5" rx="7" ry="6.5" transform="translate(-2537 532)" fill="#0092fc"/>
      <ellipse id="Ellipse_23" data-name="Ellipse 23" cx="7" cy="6.5" rx="7" ry="6.5" transform="translate(-2497 532)" fill="#0092fc"/>
    </g>
  </g>
</svg>
