<svg xmlns="http://www.w3.org/2000/svg" xmlns:xlink="http://www.w3.org/1999/xlink" width="14" height="14" viewBox="0 0 14 14">
  <defs>
    <clipPath id="clip-Artboard_1">
      <rect width="19.84" height="19.84"/>
    </clipPath>
  </defs>
  <g id="Artboard_1" data-name="Artboard – 1" clip-path="url(#clip-Artboard_1)">
    <g id="Group_738" data-name="Group 738">
      <g id="Group_737" data-name="Group 737" transform="translate(-1.243)">
        <g id="Group_736" data-name="Group 736" transform="translate(-188.157 -1052)">
          <g id="Group_735" data-name="Group 735" transform="translate(189.4 1052)">
            <path id="Path_2822" data-name="Path 2822" d="M99.4,14H91.443A3.024,3.024,0,0,1,88.4,10.957V3.043A3.024,3.024,0,0,1,91.443,0h7.911A3.024,3.024,0,0,1,102.4,3.043v7.913A2.988,2.988,0,0,1,99.4,14Z" transform="translate(-88.4)" fill="#f95661"/>
            <g id="Group_732" data-name="Group 732" transform="translate(3.737 3.435)">
              <path id="Path_2824" data-name="Path 2824" d="M98.522,14.6a2.907,2.907,0,0,1-1.13-1.261A4.289,4.289,0,0,1,97,11.422a4.1,4.1,0,0,1,.391-1.87,2.794,2.794,0,0,1,1.13-1.217A3.287,3.287,0,0,1,100.3,7.9a3.134,3.134,0,0,1,1.739.435,3.052,3.052,0,0,1,1.13,1.217,4.226,4.226,0,0,1,.391,1.87,4.56,4.56,0,0,1-.391,1.913,3.171,3.171,0,0,1-1.13,1.261,3.233,3.233,0,0,1-1.739.435A3.389,3.389,0,0,1,98.522,14.6Zm3.261-1.217a3.038,3.038,0,0,0,.522-1.913,2.9,2.9,0,0,0-.522-1.87,1.823,1.823,0,0,0-1.478-.652,1.911,1.911,0,0,0-1.522.652,2.987,2.987,0,0,0-.522,1.87,3.214,3.214,0,0,0,.522,1.913,1.852,1.852,0,0,0,1.522.652A1.823,1.823,0,0,0,101.783,13.378Z" transform="translate(-97 -7.9)" fill="#fff"/>
            </g>
          </g>
        </g>
      </g>
    </g>
  </g>
</svg>
