<svg xmlns="http://www.w3.org/2000/svg" width="63.658" height="64.266" viewBox="0 0 63.658 64.266">
  <g id="Group_883" data-name="Group 883" transform="translate(-277 -511)">
    <g id="open-envelope" transform="translate(277 511)">
      <g id="XMLID_228_" transform="translate(0)">
        <path id="XMLID_232_" d="M36.485,30.2V4.165H75.554V30.2l4.165-2.876L85.1,23.606l-5.383-4.515V2.082A2.083,2.083,0,0,0,77.637,0H34.4A2.083,2.083,0,0,0,32.32,2.082V20.871L28.1,24.409l4.22,2.915Z" transform="translate(-24.772)" fill="#2aca00"/>
        <path id="XMLID_231_" d="M161.054,136.549H134.264a1.591,1.591,0,0,0,0,3.183h26.789a1.591,1.591,0,0,0,0-3.183Z" transform="translate(-115.83 -118.901)" fill="#2aca00"/>
        <path id="XMLID_230_" d="M161.054,202.223H134.264a1.591,1.591,0,1,0,0,3.183h26.789a1.591,1.591,0,1,0,0-3.183Z" transform="translate(-115.83 -176.087)" fill="#2aca00"/>
        <path id="XMLID_229_" d="M44.1,223.018l16.41,13.621A2.122,2.122,0,0,1,57.8,239.9L40.469,225.523l-6.287,4.342-6.287-4.342L10.568,239.9a2.122,2.122,0,0,1-2.71-3.266l16.41-13.621L2.353,207.883v34.074a3.325,3.325,0,0,0,3.325,3.325H62.686a3.325,3.325,0,0,0,3.325-3.325V207.883Z" transform="translate(-2.353 -181.016)" fill="#2aca00"/>
        <path id="XMLID_233_" d="M161.054,70.877H134.264a1.591,1.591,0,1,0,0,3.183h26.789a1.591,1.591,0,1,0,0-3.183Z" transform="translate(-115.83 -61.717)" fill="#2aca00"/>
      </g>
    </g>
  </g>
</svg>
