<svg xmlns="http://www.w3.org/2000/svg" width="19.844" height="19.844" viewBox="0 0 19.844 19.844"><rect width="19.844" height="19.844" rx="4" fill="#3bd12d"/><path d="M238.195,282.907a1.14,1.14,0,0,1-.311-.844v-6.791a.975.975,0,0,1,1.079-1.079h3.249a3.3,3.3,0,0,1,2.31.755,3.07,3.07,0,0,1-.006,4.2,3.283,3.283,0,0,1-2.3.762h-1.993v2.158a1.127,1.127,0,0,1-.318.844,1.178,1.178,0,0,1-.863.311A1.139,1.139,0,0,1,238.195,282.907Zm3.7-4.754a1.447,1.447,0,0,0,.958-.266,1.029,1.029,0,0,0,.311-.825q0-1.1-1.269-1.1h-1.676v2.2Z" transform="translate(-231.694 -268.525)" fill="#fff"/></svg>