<svg xmlns="http://www.w3.org/2000/svg" xmlns:xlink="http://www.w3.org/1999/xlink" width="19.8" height="13.5" viewBox="0 0 19.8 13.5">
  <defs>
    <clipPath id="clip-path">
      <rect width="19.8" height="13.5" fill="none"/>
    </clipPath>
  </defs>
  <g id="visibility-button" clip-path="url(#clip-path)">
    <g id="visibility-button-2" data-name="visibility-button" transform="translate(0 -89.25)">
      <g id="visibility" transform="translate(0 89.25)">
        <path id="Path_2753" data-name="Path 2753" d="M9.9,89.25A10.6,10.6,0,0,0,0,96a10.635,10.635,0,0,0,19.8,0A10.6,10.6,0,0,0,9.9,89.25Zm0,11.25A4.5,4.5,0,1,1,14.4,96,4.456,4.456,0,0,1,9.9,100.5Zm0-7.2A2.7,2.7,0,1,0,12.6,96,2.652,2.652,0,0,0,9.9,93.3Z" transform="translate(0 -89.25)" fill="#7ddf41"/>
      </g>
    </g>
  </g>
</svg>
