<svg xmlns="http://www.w3.org/2000/svg" width="23.793" height="18.753" viewBox="0 0 23.793 18.753"><path d="M211,240h3.346v1.115H211Zm0,0" transform="translate(-200.776 -229.921)" fill="#62c437"/><path d="M19.3,85.616H15.382v.639a.67.67,0,0,1-.7.639H9.108a.67.67,0,0,1-.7-.639v-.639H4.49a2.082,2.082,0,0,1-1.984-1.311L0,77.41V91.368a2.012,2.012,0,0,0,2.091,1.917H21.7a2.012,2.012,0,0,0,2.091-1.917V77.411l-2.507,6.895A2.081,2.081,0,0,1,19.3,85.616Zm0,0" transform="translate(0 -74.532)" fill="#62c437"/><path d="M39.6,0h-5.7a1.951,1.951,0,0,0-2.138,1.673v.558H25.809L28.5,8.541a.72.72,0,0,0,.676.381h4.009V8.365a.649.649,0,0,1,.713-.558h5.7a.649.649,0,0,1,.713.558v.558h4.009a.72.72,0,0,0,.677-.381l2.688-6.311H41.734V1.673A1.951,1.951,0,0,0,39.6,0ZM33.182,2.231V1.673a.65.65,0,0,1,.713-.558h5.7a.65.65,0,0,1,.713.558v.558Zm0,0" transform="translate(-24.849)" fill="#62c437"/></svg>