<svg xmlns="http://www.w3.org/2000/svg" xmlns:xlink="http://www.w3.org/1999/xlink" width="145" height="145" viewBox="0 0 145 145">
  <defs>
    <filter id="Rectangle_1782" x="-30" y="-20" width="205" height="205" filterUnits="userSpaceOnUse">
      <feOffset dy="10" input="SourceAlpha"/>
      <feGaussianBlur stdDeviation="10" result="blur"/>
      <feFlood flood-color="#818181" flood-opacity="0.161"/>
      <feComposite operator="in" in2="blur"/>
      <feComposite in="SourceGraphic"/>
    </filter>
    <clipPath id="clip-path">
      <g transform="matrix(1, 0, 0, 1, 0, 0)" filter="url(#Rectangle_1782)">
        <rect id="Rectangle_1782-2" data-name="Rectangle 1782" width="145" height="145" rx="27" transform="translate(-442.34 1214.86)" fill="#fff"/>
      </g>
    </clipPath>
    <filter id="Rectangle_1665" x="-31" y="-19" width="205" height="205" filterUnits="userSpaceOnUse">
      <feOffset dy="10" input="SourceAlpha"/>
      <feGaussianBlur stdDeviation="10" result="blur-2"/>
      <feFlood flood-color="#818181" flood-opacity="0.161"/>
      <feComposite operator="in" in2="blur-2"/>
      <feComposite in="SourceGraphic"/>
    </filter>
    <clipPath id="clip-path-2">
      <path id="Path_2739" data-name="Path 2739" d="M1852.989,1335.9s100.513,102.8,162.958,107.787,0,31.073,0,31.073-134.121-51.589-169.65-31.073S1852.989,1335.9,1852.989,1335.9Z" transform="translate(-1832.072 -1335.905)" fill="#eaeaea" opacity="0.39"/>
    </clipPath>
  </defs>
  <g id="pretrip_left" transform="translate(442.344 -1214.86)" clip-path="url(#clip-path)">
    <g transform="matrix(1, 0, 0, 1, -442.34, 1214.86)" filter="url(#Rectangle_1665)">
      <rect id="Rectangle_1665-2" data-name="Rectangle 1665" width="145" height="145" rx="27" transform="translate(-1 1)" fill="#fff"/>
    </g>
    <g id="Mask_Group_39" data-name="Mask Group 39" transform="translate(-476 1208)" opacity="0.421" clip-path="url(#clip-path-2)">
      <rect id="Rectangle_1664" data-name="Rectangle 1664" width="145.949" height="145.949" rx="27" transform="translate(32.263 7.804)" fill="#f5f5f5"/>
    </g>
  </g>
</svg>
