<svg xmlns="http://www.w3.org/2000/svg" width="94" height="94" viewBox="0 0 94 94">
  <g id="proficient_face" transform="translate(-133 -154)">
    <g id="Group_413" data-name="Group 413" transform="translate(-140 2)">
      <circle id="Ellipse_26" data-name="Ellipse 26" cx="47" cy="47" r="47" transform="translate(273 152)" fill="#fec631"/>
      <path id="Path_2760" data-name="Path 2760" d="M10,27a24.715,24.715,0,0,0,49.43,0Z" transform="translate(285.285 185.481)" fill="#f97143"/>
      <circle id="Ellipse_27" data-name="Ellipse 27" cx="13.5" cy="13.5" r="13.5" transform="translate(286 172)" fill="#fff"/>
      <circle id="Ellipse_28" data-name="Ellipse 28" cx="13.5" cy="13.5" r="13.5" transform="translate(327 172)" fill="#fff"/>
      <path id="Union_2" data-name="Union 2" d="M-708.779-1205.961v0c-1.554-.13-3.055-.328-4.494-.584-9.2-1.635-15.727-5.7-15.727-10.456h29.209v11.039c-1.458.123-2.956.2-4.494.2S-707.321-1205.838-708.779-1205.961Zm8.987-11.039h20.221c0,4.761-6.527,8.821-15.728,10.456v0c-1.438.256-2.938.454-4.494.584Z" transform="translate(1024.285 1429.481)" fill="#fff"/>
      <circle id="Ellipse_29" data-name="Ellipse 29" cx="7.864" cy="7.864" r="7.864" transform="translate(287.421 174.285)" fill="#0092fc"/>
      <circle id="Ellipse_30" data-name="Ellipse 30" cx="7.864" cy="7.864" r="7.864" transform="translate(327.864 174.285)" fill="#0092fc"/>
    </g>
  </g>
</svg>
