<svg xmlns="http://www.w3.org/2000/svg" xmlns:xlink="http://www.w3.org/1999/xlink" width="37.97" height="37.97" viewBox="0 0 37.97 37.97"><defs><clipPath id="a"><rect width="37.97" height="37.97" fill="none"/></clipPath><linearGradient id="b" x1="0.2" x2="1" y2="0.762" gradientUnits="objectBoundingBox"><stop offset="0" stop-color="#65d023"/><stop offset="1" stop-color="#7ae54b"/></linearGradient></defs><g clip-path="url(#a)"><path d="M0,7.119V1.483A1.483,1.483,0,0,1,1.483,0H7.119a1.483,1.483,0,1,1,0,2.966H2.966V7.119A1.483,1.483,0,1,1,0,7.119ZM36.487,0H30.851a1.483,1.483,0,0,0,0,2.966H35V7.119a1.483,1.483,0,0,0,2.966,0V1.483A1.483,1.483,0,0,0,36.487,0ZM7.119,35H2.966V30.851a1.483,1.483,0,0,0-2.966,0v5.636A1.483,1.483,0,0,0,1.483,37.97H7.119a1.483,1.483,0,0,0,0-2.966Zm29.367-5.636A1.483,1.483,0,0,0,35,30.851V35H30.851a1.483,1.483,0,0,0,0,2.966h5.636a1.483,1.483,0,0,0,1.483-1.483V30.851A1.483,1.483,0,0,0,36.487,29.367ZM17.687,7.3v8.9A1.483,1.483,0,0,1,16.2,17.687H7.3A1.483,1.483,0,0,1,5.822,16.2V7.3A1.483,1.483,0,0,1,7.3,5.822h8.9A1.483,1.483,0,0,1,17.687,7.3ZM14.721,8.788H8.788v5.933h5.933Zm16.686,8.9h-8.9A1.483,1.483,0,0,1,21.024,16.2V7.3a1.483,1.483,0,0,1,1.483-1.483h8.9A1.483,1.483,0,0,1,32.89,7.3v8.9A1.483,1.483,0,0,1,31.407,17.687Zm-1.483-8.9H23.991v5.933h5.933ZM17.687,22.508v8.9A1.483,1.483,0,0,1,16.2,32.89H7.3a1.483,1.483,0,0,1-1.483-1.483v-8.9A1.483,1.483,0,0,1,7.3,21.024h8.9A1.483,1.483,0,0,1,17.687,22.508Zm-2.966,1.483H8.788v5.933h5.933ZM29.5,30.98h-5.08A1.483,1.483,0,0,1,22.934,29.5v-5.08a1.483,1.483,0,0,1,1.483-1.483H29.5a1.483,1.483,0,0,1,1.483,1.483V29.5A1.483,1.483,0,0,1,29.5,30.98ZM28.014,25.9H25.9v2.114h2.114Zm0,0" fill="url(#b)"/></g></svg>