<svg xmlns="http://www.w3.org/2000/svg" width="19.844" height="19.844" viewBox="0 0 19.844 19.844"><rect width="19.844" height="19.844" rx="4" fill="#3bd12d"/><path d="M275.989,283.134a4.663,4.663,0,0,1-1.54-.664,1.173,1.173,0,0,1-.335-.369,1.039,1.039,0,0,1-.1-.493,1.089,1.089,0,0,1,.246-.712.728.728,0,0,1,.575-.3,1.06,1.06,0,0,1,.343.055,2.084,2.084,0,0,1,.411.2,4.486,4.486,0,0,0,1.116.452,5.238,5.238,0,0,0,1.253.137,2.506,2.506,0,0,0,1.225-.24.767.767,0,0,0,.418-.705.645.645,0,0,0-.391-.541,5.533,5.533,0,0,0-1.486-.445,8.635,8.635,0,0,1-2.122-.684,2.509,2.509,0,0,1-1.075-.939,2.784,2.784,0,0,1,.212-2.9,3.463,3.463,0,0,1,1.431-1.116,5,5,0,0,1,2.048-.4,6.6,6.6,0,0,1,1.779.219,4.471,4.471,0,0,1,1.424.684,1.114,1.114,0,0,1,.349.377,1.042,1.042,0,0,1,.1.485,1.108,1.108,0,0,1-.24.712.709.709,0,0,1-.568.3,1.089,1.089,0,0,1-.329-.047,2.32,2.32,0,0,1-.425-.212c-.046-.027-.176-.1-.391-.212a3.153,3.153,0,0,0-.752-.274,4.033,4.033,0,0,0-.939-.1,2.089,2.089,0,0,0-1.122.267.806.806,0,0,0-.425.706.605.605,0,0,0,.15.425,1.525,1.525,0,0,0,.562.321,8.137,8.137,0,0,0,1.218.322,8.219,8.219,0,0,1,2.068.692,2.639,2.639,0,0,1,1.068.938,2.428,2.428,0,0,1,.315,1.259,2.63,2.63,0,0,1-.507,1.6A3.232,3.232,0,0,1,280.138,283a5.486,5.486,0,0,1-2.115.377A8.192,8.192,0,0,1,275.989,283.134Z" transform="translate(-268.115 -268.616)" fill="#fff"/></svg>