<svg xmlns="http://www.w3.org/2000/svg" width="124.138" height="116.331" viewBox="0 0 124.138 116.331">
  <g id="Group_615" data-name="Group 615" transform="translate(-117.862 -149.412)">
    <g id="Group_483" data-name="Group 483">
      <path id="Path_2748" data-name="Path 2748" d="M76.206,31.731A35.4,35.4,0,0,0,72.916,23.5l2.821-6.581L65.864,7.286l-6.581,2.821a31.711,31.711,0,0,0-8.226-3.291L48.706,0H34.839L32.253,6.816a35.4,35.4,0,0,0-8.226,3.291L17.445,7.286,7.808,16.923,10.629,23.5a31.711,31.711,0,0,0-3.291,8.226L.522,34.316V48.184l6.816,2.586A35.4,35.4,0,0,0,10.629,59L7.808,65.577l9.872,9.637,6.581-2.821a31.711,31.711,0,0,0,8.226,3.291L35.073,82.5H48.706l2.586-6.816a35.4,35.4,0,0,0,8.226-3.291L66.1,75.214l9.872-9.637L73.15,59a31.711,31.711,0,0,0,3.291-8.226l6.816-2.586V34.316ZM41.655,58.056A16.923,16.923,0,1,1,58.578,41.133,16.853,16.853,0,0,1,41.655,58.056Z" transform="translate(117.34 149.412)" fill="#51bafc"/>
      <g id="Group_397" data-name="Group 397" transform="translate(133.727 165.277)">
        <path id="Path_2749" data-name="Path 2749" d="M133.818,133.3a16.74,16.74,0,0,1-23.74,0l-6.111,6.111a25.429,25.429,0,0,0,35.962-35.962l-6.111,6.111A16.74,16.74,0,0,1,133.818,133.3Z" transform="translate(-96.563 -96.041)" fill="#1ea2f5"/>
        <path id="Path_2750" data-name="Path 2750" d="M78.456,77.934a25.535,25.535,0,0,0,0,35.962l6.111-6.111a16.786,16.786,0,0,1,23.739-23.739l6.111-6.111A25.536,25.536,0,0,0,78.456,77.934Z" transform="translate(-71.053 -70.531)" fill="#1ea2f5"/>
      </g>
      <path id="Path_2751" data-name="Path 2751" d="M234.075,357.141a11.407,11.407,0,0,0,0-4l2.35-2.35-2.35-5.876h-3.291a31.918,31.918,0,0,0-2.821-2.821v-3.291l-5.876-2.35-2.35,2.35a11.407,11.407,0,0,0-4,0l-2.35-2.35-5.876,2.35V342.1a31.916,31.916,0,0,0-2.821,2.821H201.4l-2.35,5.876,2.35,2.35a11.408,11.408,0,0,0,0,4l-2.35,2.35,2.35,5.876h3.291a31.909,31.909,0,0,0,2.821,2.821v3.291l5.876,2.35,2.35-2.35a11.407,11.407,0,0,0,4,0l2.35,2.35,5.876-2.35v-3.291a31.912,31.912,0,0,0,2.821-2.821h3.291l2.35-5.876Zm-18.8,4.936a7.595,7.595,0,1,1,9.872-4.231A7.516,7.516,0,0,1,215.271,362.077Z" transform="translate(-29.834 -108.086)" fill="#fec631"/>
      <path id="Path_2752" data-name="Path 2752" d="M370.956,220.26a11.407,11.407,0,0,0,0-4l2.35-2.35-2.35-5.876h-3.291a31.913,31.913,0,0,0-2.821-2.821v-3.291l-5.876-2.35-2.35,2.35a11.407,11.407,0,0,0-4,0l-2.35-2.35-5.876,2.35v3.291a31.911,31.911,0,0,0-2.821,2.821h-3.291l-2.35,5.876,2.35,2.35a11.407,11.407,0,0,0,0,4l-2.35,2.35,2.35,5.876h3.291a31.912,31.912,0,0,0,2.821,2.821V234.6l5.876,2.35,2.35-2.35a11.407,11.407,0,0,0,4,0l2.35,2.35,5.876-2.35v-3.291a31.907,31.907,0,0,0,2.821-2.821h3.291l2.35-5.876Zm-19.038,5.171a7.595,7.595,0,1,1,9.872-4.231A7.361,7.361,0,0,1,351.917,225.431Z" transform="translate(-131.306 -3.328)" fill="#f89849"/>
    </g>
  </g>
</svg>
