<svg xmlns="http://www.w3.org/2000/svg" width="19.123" height="19.125" viewBox="0 0 19.123 19.125">
  <g id="nut-icon" transform="translate(-0.002)">
    <g id="Group_358" data-name="Group 358" transform="translate(0.002)">
      <g id="Group_357" data-name="Group 357">
        <circle id="Ellipse_6" data-name="Ellipse 6" cx="1.648" cy="1.648" r="1.648" transform="translate(7.914 7.914)" fill="#959595"/>
        <path id="Path_2732" data-name="Path 2732" d="M18.738,7.929l-2.3-.432a7.086,7.086,0,0,0-.551-1.333l1.333-1.949a.494.494,0,0,0-.057-.606L15.516,1.965a.494.494,0,0,0-.605-.057L12.96,3.242a7.122,7.122,0,0,0-1.374-.562L11.157.389A.494.494,0,0,0,10.688,0H8.364A.5.5,0,0,0,7.9.389L7.461,2.7a7.1,7.1,0,0,0-1.319.551L4.218,1.937a.494.494,0,0,0-.606.057L1.968,3.637a.5.5,0,0,0-.057.606L3.236,6.18A7.142,7.142,0,0,0,2.694,7.5l-2.3.432A.5.5,0,0,0,0,8.4v2.324a.5.5,0,0,0,.388.469l2.3.432a7.125,7.125,0,0,0,.554,1.344l-1.31,1.915a.494.494,0,0,0,.057.606l1.643,1.643a.5.5,0,0,0,.606.057l1.914-1.31a7.154,7.154,0,0,0,1.3.544L7.9,18.737a.5.5,0,0,0,.469.388h2.325a.5.5,0,0,0,.469-.388l.43-2.292a7.2,7.2,0,0,0,1.36-.554l1.939,1.327a.493.493,0,0,0,.606-.057l1.643-1.643a.5.5,0,0,0,.057-.606l-1.319-1.927a7.151,7.151,0,0,0,.563-1.361l2.3-.432a.5.5,0,0,0,.388-.469V8.4A.493.493,0,0,0,18.738,7.929ZM9.565,13.552a3.989,3.989,0,1,1,3.989-3.989A3.989,3.989,0,0,1,9.565,13.552Z" transform="translate(-0.002)" fill="#959595"/>
      </g>
    </g>
  </g>
</svg>
