<svg xmlns="http://www.w3.org/2000/svg" width="19.844" height="19.844" viewBox="0 0 19.844 19.844"><rect width="19.844" height="19.844" rx="4" fill="#3bd12d"/><path d="M316.028,283.12a1.26,1.26,0,0,1-.372-.954V275.3H313.6a1.435,1.435,0,0,1-.954-.269,1.026,1.026,0,0,1-.313-.823,1,1,0,0,1,.313-.816,1.459,1.459,0,0,1,.954-.262h6.82a1.461,1.461,0,0,1,.954.262,1.006,1.006,0,0,1,.313.816,1.028,1.028,0,0,1-.313.823,1.437,1.437,0,0,1-.954.269h-2.054v6.863a1.262,1.262,0,0,1-.372.954,1.533,1.533,0,0,1-1.967,0Z" transform="translate(-307.09 -268.273)" fill="#fff"/></svg>