<svg xmlns="http://www.w3.org/2000/svg" width="73.335" height="77" viewBox="0 0 73.335 77"><g transform="translate(-148 -180)"><rect width="19" height="49" transform="translate(148 208)" fill="#54b7fc"/><ellipse cx="5.5" cy="6" rx="5.5" ry="6" transform="translate(152 239)" fill="#ffd12b"/><path d="M68.08,35.976a5.535,5.535,0,0,0-5.535-5.535H40.957l1.367-6.391a45.5,45.5,0,0,0,.144-14.994C41.848,4.882,38.109,0,34.2,0h-.331c-3.335,0-4.53,3.679-4.53,8.3,0,22.485-11.069,22.139-11.069,22.139H15.5V74.719H55.627a5.535,5.535,0,1,0,0-11.069h4.151a5.535,5.535,0,1,0,0-11.069h4.151a5.535,5.535,0,0,0,5.535-5.535c0-3.45-2.232-4.763-5.535-5.252a48.883,48.883,0,0,0-5.535-.282h4.151A5.535,5.535,0,0,0,68.08,35.976Z" transform="translate(151.872 180)" fill="#fde0c0"/><path d="M57.346,29H39.884a1.384,1.384,0,0,0,0,2.767H58.5a9.012,9.012,0,0,0-3.4-1.1,48.883,48.883,0,0,0-5.535-.282h4.151A5.484,5.484,0,0,0,57.346,29Z" transform="translate(160.696 191.127)" fill="#fccd96"/><path d="M58.729,37H39.884a1.384,1.384,0,0,0,0,2.767h14.7a5.488,5.488,0,0,0-3.627-1.384H55.1A5.484,5.484,0,0,0,58.729,37Z" transform="translate(160.696 194.196)" fill="#fccd96"/><path d="M55.346,45H37.884a1.384,1.384,0,0,0,0,2.767H51.2a5.488,5.488,0,0,0-3.627-1.384h4.151A5.484,5.484,0,0,0,55.346,45Z" transform="translate(159.929 197.266)" fill="#fccd96"/></g></svg>