<svg xmlns="http://www.w3.org/2000/svg" xmlns:xlink="http://www.w3.org/1999/xlink" width="94" height="94" viewBox="0 0 94 94">
  <defs>
    <clipPath id="clip-path">
      <path id="Subtraction_4" data-name="Subtraction 4" d="M28.1,45.837A13.5,13.5,0,0,1,14.617,33.092L32.541,19.586A13.5,13.5,0,0,1,28.1,45.837Z" transform="translate(-2452.596 606.163)" fill="#fff"/>
    </clipPath>
    <clipPath id="clip-path-2">
      <path id="Subtraction_4-2" data-name="Subtraction 4" d="M17.924,26.251,0,12.745A13.5,13.5,0,1,1,17.924,26.251Z" transform="translate(26.979 26.251) rotate(180)" fill="#fff"/>
    </clipPath>
  </defs>
  <g id="unsuccessful_face" transform="translate(2347 -505)">
    <circle id="Ellipse_40" data-name="Ellipse 40" cx="47" cy="47" r="47" transform="translate(-2347 505)" fill="#fec631"/>
    <path id="Path_2774" data-name="Path 2774" d="M155.671,320h-.007c-19.369,0-26.887,9.731-27.2,10.145a2.305,2.305,0,0,0,3.679,2.778c.261-.34,6.615-8.312,23.519-8.312h.007c16.908,0,23.264,7.975,23.516,8.3a2.306,2.306,0,0,0,3.688-2.769C182.565,329.731,175.045,320,155.671,320Z" transform="translate(-2455.504 245)" fill="#f97143"/>
    <g id="Group_491" data-name="Group 491" transform="translate(0 1.251)">
      <g id="Group_489" data-name="Group 489" transform="translate(190 -17)">
        <g id="Group_488" data-name="Group 488" transform="translate(19.979 16)">
          <path id="Subtraction_3" data-name="Subtraction 3" d="M28.1,45.837A13.5,13.5,0,0,1,14.617,33.092L32.541,19.586A13.5,13.5,0,0,1,28.1,45.837Z" transform="translate(-2558.596 506.163)" fill="#fff"/>
        </g>
        <g id="Mask_Group_66" data-name="Mask Group 66" transform="translate(-86.021 -84)" clip-path="url(#clip-path)">
          <ellipse id="Ellipse_47" data-name="Ellipse 47" cx="9" cy="8.5" rx="9" ry="8.5" transform="translate(-2433 637)" fill="#0092fc"/>
        </g>
      </g>
      <g id="Group_490" data-name="Group 490" transform="translate(-2293 524.749)">
        <g id="Group_488-2" data-name="Group 488">
          <path id="Subtraction_3-2" data-name="Subtraction 3" d="M17.924,26.251,0,12.745A13.5,13.5,0,1,1,17.924,26.251Z" transform="translate(26.979 26.251) rotate(180)" fill="#fff"/>
        </g>
        <g id="Mask_Group_66-2" data-name="Mask Group 66" clip-path="url(#clip-path-2)">
          <ellipse id="Ellipse_47-2" data-name="Ellipse 47" cx="9" cy="8.5" rx="9" ry="8.5" transform="translate(4 11.251)" fill="#0092fc"/>
        </g>
      </g>
    </g>
  </g>
</svg>
