<svg xmlns="http://www.w3.org/2000/svg" width="19.844" height="19.844" viewBox="0 0 19.844 19.844"><rect width="19.844" height="19.844" rx="4" fill="#f95661"/><path d="M317.842,322.547a1.232,1.232,0,0,1,.646-.176,1.5,1.5,0,0,1,.954.338,1.043,1.043,0,0,1,.426.852,1.139,1.139,0,0,1-.133.514l-3.875,8a1.353,1.353,0,0,1-.572.609,1.694,1.694,0,0,1-1.644,0,1.353,1.353,0,0,1-.572-.609l-3.876-8a1.138,1.138,0,0,1-.117-.514,1.038,1.038,0,0,1,.441-.844,1.555,1.555,0,0,1,.983-.346,1.272,1.272,0,0,1,.653.176,1.146,1.146,0,0,1,.462.529l2.892,6.253,2.877-6.253A1.15,1.15,0,0,1,317.842,322.547Z" transform="translate(-304.688 -317.731)" fill="#fff"/></svg>