<svg xmlns="http://www.w3.org/2000/svg" width="19.844" height="19.844" viewBox="0 0 19.844 19.844"><rect width="19.844" height="19.844" rx="4" fill="#3bd12d"/><path d="M363.927,282.121a1.167,1.167,0,0,1-.386.867,1.222,1.222,0,0,1-.867.372,1.145,1.145,0,0,1-.889-.437l-2.506-3-2.549,3a1.13,1.13,0,0,1-.874.437,1.208,1.208,0,0,1-.867-.379,1.174,1.174,0,0,1-.08-1.661l2.8-3.234-2.724-3.161a1.208,1.208,0,0,1-.32-.787,1.168,1.168,0,0,1,.386-.867,1.236,1.236,0,0,1,.881-.372,1.146,1.146,0,0,1,.889.437l2.461,2.914,2.448-2.914a1.061,1.061,0,0,1,.859-.437,1.238,1.238,0,0,1,.881.372,1.169,1.169,0,0,1,.386.867,1.2,1.2,0,0,1-.306.787l-2.724,3.161,2.782,3.234A1.189,1.189,0,0,1,363.927,282.121Z" transform="translate(-349.343 -268.041)" fill="#fff"/></svg>