<svg xmlns="http://www.w3.org/2000/svg" width="109.719" height="80.321" viewBox="0 0 109.719 80.321"><g transform="translate(-125 -189)"><path d="M353.364,164.8H330.709v41.061h37.118V187.38L363.5,172.418a10.55,10.55,0,0,0-10.134-7.618" transform="translate(-134.846 44.814)" fill="#f26523"/><path d="M381.316,206.1l-3.858-13.337a5.429,5.429,0,0,0-5.186-3.9h-17.5V206.1Z" transform="translate(-153.754 25.906)" fill="#84dbff"/><path d="M381.287,206.066H354.731V188.832Z" transform="translate(-153.721 25.931)" fill="#54b7fc"/><path d="M381.316,206.1l-3.858-13.337a5.429,5.429,0,0,0-5.186-3.9h-17.5Z" transform="translate(-153.754 25.906)" fill="#54b7fc"/><path d="M6.857,68.6H64.006a6.858,6.858,0,0,1,6.857,6.857V130.27H0V75.454A6.856,6.856,0,0,1,6.857,68.6" transform="translate(125 120.403)" fill="#ffd12b"/><path d="M109.752,326.9v7.748H.043V326.9H11.494a15.71,15.71,0,0,1,27.427,0H75.765a15.689,15.689,0,0,1,27.4,0Z" transform="translate(124.967 -76.233)" fill="#e0e0e0"/><path d="M388.125,352.187a10.948,10.948,0,1,1-10.95-10.95,10.95,10.95,0,0,1,10.95,10.95" transform="translate(-162.755 -93.817)" fill="#a3a3a3"/><path d="M405.589,376.216a4.4,4.4,0,1,1-4.4-4.4,4.4,4.4,0,0,1,4.4,4.4" transform="translate(-186.767 -117.845)" fill="#e0e0e0"/><path d="M88.237,352.187a10.95,10.95,0,1,1-10.95-10.95,10.952,10.952,0,0,1,10.95,10.95" transform="translate(72.879 -93.817)" fill="#a3a3a3"/><path d="M105.7,376.216a4.4,4.4,0,1,1-4.4-4.4,4.4,4.4,0,0,1,4.4,4.4" transform="translate(48.858 -117.845)" fill="#e0e0e0"/></g></svg>