<svg xmlns="http://www.w3.org/2000/svg" width="19.844" height="19.844" viewBox="0 0 19.844 19.844"><rect width="19.844" height="19.844" rx="4" fill="#f95661"/><path d="M360.05,330.8a.926.926,0,0,1,.308.774.98.98,0,0,1-.3.8,1.466,1.466,0,0,1-.947.251h-5.736a1.118,1.118,0,0,1-.839-.315,1.083,1.083,0,0,1-.308-.788,1.583,1.583,0,0,1,.33-.933l4.416-6.008H353.5a1.5,1.5,0,0,1-.953-.251.929.929,0,0,1-.308-.767.967.967,0,0,1,.308-.8,1.5,1.5,0,0,1,.953-.251h5.507a1.115,1.115,0,0,1,.824.308,1.061,1.061,0,0,1,.308.782,1.605,1.605,0,0,1-.33.947l-4.417,6.008h3.714A1.5,1.5,0,0,1,360.05,330.8Z" transform="translate(-346.371 -317.869)" fill="#fff"/></svg>